# xmcd
#
# Track frame offsets:
#	150
#	20213
#	37341
#	64907
#	83590
#	109102
#	134183
#	158677
#	178074
#
# Disc length: 2758 seconds
# Revision: 0
# Processed by: cddbd v1.5.2PL0 Copyright (c) Steve Scherf et al.
# Submitted via: dBpowerAMP V12.0
#
DISCID=810ac409
DTITLE=Stephanie Mills - Sweet Sensation
DYEAR=2008
DGENRE=Soul
TTITLE0=Sweet Sensation
TTITLE1=Try My Love
TTITLE2=I just Wanna Say
TTITLE3=Wish That You Were Mine
TTITLE4=D-a-n-c-i-n' 
TTITLE5=Still Mine
TTITLE6=Never Knew Love Like This Before
TTITLE7=Mixture Of Love
TTITLE8=Sweet Sensation (Extended Version)
EXTD=
EXTT0=
EXTT1=
EXTT2=
EXTT3=
EXTT4=
EXTT5=
EXTT6=
EXTT7=
EXTT8=
PLAYORDER=
